<mxfile host="app.diagrams.net" modified="2023-04-02T06:03:36.572Z" agent="Mozilla/5.0 (Windows NT 10.0; Win64; x64) AppleWebKit/537.36 (KHTML, like Gecko) Chrome/110.0.0.0 Safari/537.36 OPR/96.0.0.0 (Edition std-1)" etag="EFPaPdP5tD4t25iR7ET1" version="21.1.2" type="github">
  <diagram name="Página-1" id="5om2jHfYDQBxOcwb8WEg">
    <mxGraphModel dx="3520" dy="3025" grid="1" gridSize="10" guides="1" tooltips="1" connect="1" arrows="1" fold="1" page="1" pageScale="1" pageWidth="827" pageHeight="1169" math="0" shadow="0">
      <root>
        <mxCell id="0" />
        <mxCell id="1" parent="0" />
        <mxCell id="cv6Nd3fkEaMCrtGPVJz1-3" value="" style="rounded=0;whiteSpace=wrap;html=1;rotation=90;" vertex="1" parent="1">
          <mxGeometry x="23.5" y="-154.5" width="806" height="535" as="geometry" />
        </mxCell>
        <mxCell id="EVFYkusxM7iN76oJTC_--1" value="Professores" style="shape=umlActor;verticalLabelPosition=bottom;verticalAlign=top;html=1;outlineConnect=0;" parent="1" vertex="1">
          <mxGeometry x="95" y="-125" width="30" height="60" as="geometry" />
        </mxCell>
        <mxCell id="EVFYkusxM7iN76oJTC_--2" value="&amp;lt;&amp;lt;Include&amp;gt;&amp;gt;" style="endArrow=block;endSize=16;endFill=0;html=1;rounded=0;" parent="1" edge="1" target="7oku3wsMFGT8mS0vYyNM-8" source="EVFYkusxM7iN76oJTC_--1">
          <mxGeometry width="160" relative="1" as="geometry">
            <mxPoint x="165" y="-90" as="sourcePoint" />
            <mxPoint x="325" y="-90" as="targetPoint" />
            <mxPoint as="offset" />
            <Array as="points">
              <mxPoint x="400" y="-80" />
            </Array>
          </mxGeometry>
        </mxCell>
        <mxCell id="7oku3wsMFGT8mS0vYyNM-1" value="Pais" style="shape=umlActor;verticalLabelPosition=bottom;verticalAlign=top;html=1;" parent="1" vertex="1">
          <mxGeometry x="95" y="45" width="30" height="60" as="geometry" />
        </mxCell>
        <mxCell id="7oku3wsMFGT8mS0vYyNM-2" value="&amp;lt;&amp;lt;Include&amp;gt;&amp;gt;" style="endArrow=block;endSize=16;endFill=0;html=1;rounded=0;exitX=0.73;exitY=0.779;exitDx=0;exitDy=0;exitPerimeter=0;" parent="1" edge="1" target="cv6Nd3fkEaMCrtGPVJz1-5" source="7oku3wsMFGT8mS0vYyNM-3">
          <mxGeometry width="160" relative="1" as="geometry">
            <mxPoint x="225" y="190" as="sourcePoint" />
            <mxPoint x="385" y="190" as="targetPoint" />
            <mxPoint as="offset" />
            <Array as="points">
              <mxPoint x="315" y="190" />
              <mxPoint x="380" y="130" />
            </Array>
          </mxGeometry>
        </mxCell>
        <mxCell id="cv6Nd3fkEaMCrtGPVJz1-13" style="edgeStyle=orthogonalEdgeStyle;rounded=0;orthogonalLoop=1;jettySize=auto;html=1;exitX=0.5;exitY=0.5;exitDx=0;exitDy=0;exitPerimeter=0;" edge="1" parent="1" source="7oku3wsMFGT8mS0vYyNM-3" target="cv6Nd3fkEaMCrtGPVJz1-12">
          <mxGeometry relative="1" as="geometry" />
        </mxCell>
        <mxCell id="cv6Nd3fkEaMCrtGPVJz1-14" value="&amp;lt;&amp;lt;Extend&amp;gt;&amp;gt;" style="edgeLabel;html=1;align=center;verticalAlign=middle;resizable=0;points=[];" vertex="1" connectable="0" parent="cv6Nd3fkEaMCrtGPVJz1-13">
          <mxGeometry x="0.1717" y="-3" relative="1" as="geometry">
            <mxPoint as="offset" />
          </mxGeometry>
        </mxCell>
        <mxCell id="7oku3wsMFGT8mS0vYyNM-3" value="Administradores" style="shape=umlActor;verticalLabelPosition=bottom;verticalAlign=top;html=1;" parent="1" vertex="1">
          <mxGeometry x="95" y="180" width="30" height="60" as="geometry" />
        </mxCell>
        <mxCell id="7oku3wsMFGT8mS0vYyNM-7" value="&amp;lt;&amp;lt;Include&amp;gt;&amp;gt;" style="endArrow=block;endSize=16;endFill=0;html=1;rounded=0;exitX=0.66;exitY=0.753;exitDx=0;exitDy=0;exitPerimeter=0;" parent="1" edge="1" target="cv6Nd3fkEaMCrtGPVJz1-5" source="7oku3wsMFGT8mS0vYyNM-1">
          <mxGeometry width="160" relative="1" as="geometry">
            <mxPoint x="155" y="39.74000000000001" as="sourcePoint" />
            <mxPoint x="315" y="39.74000000000001" as="targetPoint" />
            <mxPoint as="offset" />
          </mxGeometry>
        </mxCell>
        <mxCell id="7oku3wsMFGT8mS0vYyNM-8" value="Controlar a frequência dos Alunos" style="ellipse;whiteSpace=wrap;html=1;" parent="1" vertex="1">
          <mxGeometry x="509" y="-140" width="91" height="60" as="geometry" />
        </mxCell>
        <mxCell id="cv6Nd3fkEaMCrtGPVJz1-5" value="Inscrição dos Filhos/Alunos" style="ellipse;whiteSpace=wrap;html=1;" vertex="1" parent="1">
          <mxGeometry x="360" y="-40" width="100" height="60" as="geometry" />
        </mxCell>
        <mxCell id="cv6Nd3fkEaMCrtGPVJz1-9" value="" style="edgeStyle=orthogonalEdgeStyle;rounded=0;orthogonalLoop=1;jettySize=auto;html=1;" edge="1" parent="1" source="cv6Nd3fkEaMCrtGPVJz1-7" target="cv6Nd3fkEaMCrtGPVJz1-5">
          <mxGeometry relative="1" as="geometry" />
        </mxCell>
        <mxCell id="cv6Nd3fkEaMCrtGPVJz1-16" value="&amp;lt;&amp;lt;Extend&amp;gt;&amp;gt;" style="edgeLabel;html=1;align=center;verticalAlign=middle;resizable=0;points=[];" vertex="1" connectable="0" parent="cv6Nd3fkEaMCrtGPVJz1-9">
          <mxGeometry x="0.2556" relative="1" as="geometry">
            <mxPoint as="offset" />
          </mxGeometry>
        </mxCell>
        <mxCell id="cv6Nd3fkEaMCrtGPVJz1-11" style="edgeStyle=orthogonalEdgeStyle;rounded=0;orthogonalLoop=1;jettySize=auto;html=1;" edge="1" parent="1" source="cv6Nd3fkEaMCrtGPVJz1-7" target="7oku3wsMFGT8mS0vYyNM-8">
          <mxGeometry relative="1" as="geometry">
            <Array as="points">
              <mxPoint x="464" y="-10" />
              <mxPoint x="464" y="-10" />
            </Array>
          </mxGeometry>
        </mxCell>
        <mxCell id="cv6Nd3fkEaMCrtGPVJz1-15" value="&amp;lt;&amp;lt;Extend&amp;gt;&amp;gt;" style="edgeLabel;html=1;align=center;verticalAlign=middle;resizable=0;points=[];" vertex="1" connectable="0" parent="cv6Nd3fkEaMCrtGPVJz1-11">
          <mxGeometry x="-0.1447" y="2" relative="1" as="geometry">
            <mxPoint as="offset" />
          </mxGeometry>
        </mxCell>
        <mxCell id="cv6Nd3fkEaMCrtGPVJz1-7" value="Gerenciar as turmas" style="ellipse;whiteSpace=wrap;html=1;" vertex="1" parent="1">
          <mxGeometry x="570" y="130" width="100" height="60" as="geometry" />
        </mxCell>
        <mxCell id="cv6Nd3fkEaMCrtGPVJz1-8" value="&amp;lt;&amp;lt;Extend&amp;gt;&amp;gt;" style="endArrow=block;endSize=16;endFill=0;html=1;rounded=0;exitX=0.529;exitY=0.348;exitDx=0;exitDy=0;exitPerimeter=0;" edge="1" parent="1" source="7oku3wsMFGT8mS0vYyNM-3" target="cv6Nd3fkEaMCrtGPVJz1-7">
          <mxGeometry width="160" relative="1" as="geometry">
            <mxPoint x="175" y="234.47000000000003" as="sourcePoint" />
            <mxPoint x="335" y="234.47000000000003" as="targetPoint" />
            <Array as="points">
              <mxPoint x="315" y="230" />
            </Array>
          </mxGeometry>
        </mxCell>
        <mxCell id="cv6Nd3fkEaMCrtGPVJz1-10" style="edgeStyle=orthogonalEdgeStyle;rounded=0;orthogonalLoop=1;jettySize=auto;html=1;exitX=1;exitY=0.5;exitDx=0;exitDy=0;" edge="1" parent="1" source="cv6Nd3fkEaMCrtGPVJz1-3" target="cv6Nd3fkEaMCrtGPVJz1-3">
          <mxGeometry relative="1" as="geometry" />
        </mxCell>
        <mxCell id="cv6Nd3fkEaMCrtGPVJz1-12" value="Agendamento de Aulas" style="ellipse;whiteSpace=wrap;html=1;" vertex="1" parent="1">
          <mxGeometry x="520" y="355" width="120" height="80" as="geometry" />
        </mxCell>
        <mxCell id="cv6Nd3fkEaMCrtGPVJz1-18" style="edgeStyle=orthogonalEdgeStyle;rounded=0;orthogonalLoop=1;jettySize=auto;html=1;entryX=0.5;entryY=0.5;entryDx=0;entryDy=0;entryPerimeter=0;" edge="1" parent="1" source="cv6Nd3fkEaMCrtGPVJz1-17" target="7oku3wsMFGT8mS0vYyNM-3">
          <mxGeometry relative="1" as="geometry">
            <Array as="points">
              <mxPoint x="290" y="240" />
              <mxPoint x="110" y="240" />
            </Array>
          </mxGeometry>
        </mxCell>
        <mxCell id="cv6Nd3fkEaMCrtGPVJz1-25" value="&amp;lt;&amp;lt;Include&amp;gt;&amp;gt;" style="edgeLabel;html=1;align=center;verticalAlign=middle;resizable=0;points=[];" vertex="1" connectable="0" parent="cv6Nd3fkEaMCrtGPVJz1-18">
          <mxGeometry x="-0.4204" y="1" relative="1" as="geometry">
            <mxPoint y="-1" as="offset" />
          </mxGeometry>
        </mxCell>
        <mxCell id="cv6Nd3fkEaMCrtGPVJz1-23" style="edgeStyle=orthogonalEdgeStyle;rounded=0;orthogonalLoop=1;jettySize=auto;html=1;entryX=0.5;entryY=0.5;entryDx=0;entryDy=0;entryPerimeter=0;" edge="1" parent="1" source="cv6Nd3fkEaMCrtGPVJz1-17" target="cv6Nd3fkEaMCrtGPVJz1-22">
          <mxGeometry relative="1" as="geometry" />
        </mxCell>
        <mxCell id="cv6Nd3fkEaMCrtGPVJz1-24" value="&amp;lt;&amp;lt;Extend&amp;gt;&amp;gt;" style="edgeLabel;html=1;align=center;verticalAlign=middle;resizable=0;points=[];" vertex="1" connectable="0" parent="cv6Nd3fkEaMCrtGPVJz1-23">
          <mxGeometry x="-0.2378" y="-3" relative="1" as="geometry">
            <mxPoint as="offset" />
          </mxGeometry>
        </mxCell>
        <mxCell id="cv6Nd3fkEaMCrtGPVJz1-17" value="Criação de Cursos" style="ellipse;whiteSpace=wrap;html=1;" vertex="1" parent="1">
          <mxGeometry x="350" y="390" width="80.5" height="50" as="geometry" />
        </mxCell>
        <mxCell id="cv6Nd3fkEaMCrtGPVJz1-22" value="Alunos" style="shape=umlActor;verticalLabelPosition=bottom;verticalAlign=top;html=1;outlineConnect=0;" vertex="1" parent="1">
          <mxGeometry x="95" y="345" width="30" height="60" as="geometry" />
        </mxCell>
        <mxCell id="cv6Nd3fkEaMCrtGPVJz1-27" style="edgeStyle=orthogonalEdgeStyle;rounded=0;orthogonalLoop=1;jettySize=auto;html=1;" edge="1" parent="1" source="cv6Nd3fkEaMCrtGPVJz1-26" target="EVFYkusxM7iN76oJTC_--1">
          <mxGeometry relative="1" as="geometry" />
        </mxCell>
        <mxCell id="cv6Nd3fkEaMCrtGPVJz1-28" value="&amp;lt;&amp;lt;Include&amp;gt;&amp;gt;" style="edgeLabel;html=1;align=center;verticalAlign=middle;resizable=0;points=[];" vertex="1" connectable="0" parent="cv6Nd3fkEaMCrtGPVJz1-27">
          <mxGeometry x="-0.3655" relative="1" as="geometry">
            <mxPoint as="offset" />
          </mxGeometry>
        </mxCell>
        <mxCell id="cv6Nd3fkEaMCrtGPVJz1-29" style="edgeStyle=orthogonalEdgeStyle;rounded=0;orthogonalLoop=1;jettySize=auto;html=1;entryX=0.6;entryY=0.233;entryDx=0;entryDy=0;entryPerimeter=0;" edge="1" parent="1">
          <mxGeometry relative="1" as="geometry">
            <mxPoint x="405" y="-190" as="sourcePoint" />
            <mxPoint x="140" y="198.9799999999998" as="targetPoint" />
            <Array as="points">
              <mxPoint x="207" y="-190" />
              <mxPoint x="207" y="199" />
            </Array>
          </mxGeometry>
        </mxCell>
        <mxCell id="cv6Nd3fkEaMCrtGPVJz1-31" value="&amp;lt;&amp;lt;Include&amp;gt;&amp;gt;" style="edgeLabel;html=1;align=center;verticalAlign=middle;resizable=0;points=[];" vertex="1" connectable="0" parent="cv6Nd3fkEaMCrtGPVJz1-29">
          <mxGeometry x="0.0559" y="1" relative="1" as="geometry">
            <mxPoint as="offset" />
          </mxGeometry>
        </mxCell>
        <mxCell id="cv6Nd3fkEaMCrtGPVJz1-26" value="Acesso a Materiais Didáticos" style="ellipse;whiteSpace=wrap;html=1;" vertex="1" parent="1">
          <mxGeometry x="360" y="-240" width="90" height="50" as="geometry" />
        </mxCell>
        <mxCell id="cv6Nd3fkEaMCrtGPVJz1-33" style="edgeStyle=orthogonalEdgeStyle;rounded=0;orthogonalLoop=1;jettySize=auto;html=1;entryX=0.5;entryY=0.5;entryDx=0;entryDy=0;entryPerimeter=0;" edge="1" parent="1" source="cv6Nd3fkEaMCrtGPVJz1-32" target="EVFYkusxM7iN76oJTC_--1">
          <mxGeometry relative="1" as="geometry" />
        </mxCell>
        <mxCell id="cv6Nd3fkEaMCrtGPVJz1-34" value="&amp;lt;&amp;lt;Extend&amp;gt;&amp;gt;" style="edgeLabel;html=1;align=center;verticalAlign=middle;resizable=0;points=[];" vertex="1" connectable="0" parent="cv6Nd3fkEaMCrtGPVJz1-33">
          <mxGeometry x="-0.1522" y="1" relative="1" as="geometry">
            <mxPoint as="offset" />
          </mxGeometry>
        </mxCell>
        <mxCell id="cv6Nd3fkEaMCrtGPVJz1-35" style="edgeStyle=orthogonalEdgeStyle;rounded=0;orthogonalLoop=1;jettySize=auto;html=1;entryX=1;entryY=0.3333333333333333;entryDx=0;entryDy=0;entryPerimeter=0;" edge="1" parent="1" source="cv6Nd3fkEaMCrtGPVJz1-32" target="cv6Nd3fkEaMCrtGPVJz1-22">
          <mxGeometry relative="1" as="geometry">
            <Array as="points">
              <mxPoint x="180" y="-170" />
              <mxPoint x="180" y="365" />
            </Array>
          </mxGeometry>
        </mxCell>
        <mxCell id="cv6Nd3fkEaMCrtGPVJz1-36" value="&amp;lt;&amp;lt;Extend&amp;gt;&amp;gt;" style="edgeLabel;html=1;align=center;verticalAlign=middle;resizable=0;points=[];" vertex="1" connectable="0" parent="cv6Nd3fkEaMCrtGPVJz1-35">
          <mxGeometry x="-0.7465" y="-2" relative="1" as="geometry">
            <mxPoint as="offset" />
          </mxGeometry>
        </mxCell>
        <mxCell id="cv6Nd3fkEaMCrtGPVJz1-32" value="Avaliação de desempenho" style="ellipse;whiteSpace=wrap;html=1;" vertex="1" parent="1">
          <mxGeometry x="382.25" y="-170" width="88.5" height="55" as="geometry" />
        </mxCell>
        <mxCell id="cv6Nd3fkEaMCrtGPVJz1-38" style="edgeStyle=orthogonalEdgeStyle;rounded=0;orthogonalLoop=1;jettySize=auto;html=1;" edge="1" parent="1" source="cv6Nd3fkEaMCrtGPVJz1-37">
          <mxGeometry relative="1" as="geometry">
            <mxPoint x="110" y="340" as="targetPoint" />
            <Array as="points">
              <mxPoint x="110" y="310" />
            </Array>
          </mxGeometry>
        </mxCell>
        <mxCell id="cv6Nd3fkEaMCrtGPVJz1-39" value="&amp;lt;&amp;lt;Include&amp;gt;&amp;gt;" style="edgeLabel;html=1;align=center;verticalAlign=middle;resizable=0;points=[];" vertex="1" connectable="0" parent="cv6Nd3fkEaMCrtGPVJz1-38">
          <mxGeometry x="-0.6436" y="4" relative="1" as="geometry">
            <mxPoint x="-1" y="-4" as="offset" />
          </mxGeometry>
        </mxCell>
        <mxCell id="cv6Nd3fkEaMCrtGPVJz1-37" value="Certificado de Conclusão" style="ellipse;whiteSpace=wrap;html=1;" vertex="1" parent="1">
          <mxGeometry x="410" y="275" width="90" height="70" as="geometry" />
        </mxCell>
        <mxCell id="cv6Nd3fkEaMCrtGPVJz1-41" style="edgeStyle=orthogonalEdgeStyle;rounded=0;orthogonalLoop=1;jettySize=auto;html=1;entryX=0.752;entryY=0.741;entryDx=0;entryDy=0;entryPerimeter=0;" edge="1" parent="1" source="cv6Nd3fkEaMCrtGPVJz1-40" target="7oku3wsMFGT8mS0vYyNM-1">
          <mxGeometry relative="1" as="geometry">
            <Array as="points">
              <mxPoint x="240" y="80" />
              <mxPoint x="240" y="90" />
            </Array>
          </mxGeometry>
        </mxCell>
        <mxCell id="cv6Nd3fkEaMCrtGPVJz1-42" value="&amp;lt;&amp;lt;Extend&amp;gt;&amp;gt;" style="edgeLabel;html=1;align=center;verticalAlign=middle;resizable=0;points=[];" vertex="1" connectable="0" parent="cv6Nd3fkEaMCrtGPVJz1-41">
          <mxGeometry x="-0.2125" y="2" relative="1" as="geometry">
            <mxPoint x="14" y="-2" as="offset" />
          </mxGeometry>
        </mxCell>
        <mxCell id="cv6Nd3fkEaMCrtGPVJz1-40" value="Comunicação" style="ellipse;whiteSpace=wrap;html=1;" vertex="1" parent="1">
          <mxGeometry x="460" y="55" width="80" height="50" as="geometry" />
        </mxCell>
        <mxCell id="cv6Nd3fkEaMCrtGPVJz1-43" value="MCU" style="text;html=1;strokeColor=none;fillColor=none;align=center;verticalAlign=middle;whiteSpace=wrap;rounded=0;fontFamily=Verdana;fontSize=60;" vertex="1" parent="1">
          <mxGeometry x="396.5" y="-380" width="60" height="30" as="geometry" />
        </mxCell>
      </root>
    </mxGraphModel>
  </diagram>
</mxfile>
